# xmcd CD database file
#
# Track frame offsets:
#	150
#	25220
#	46000
#
# Disc length: 946 seconds
#
# Revision: 0
# Processed by: cddbd v1.5.1PL0 Copyright (c) Steve Scherf et al.
# Submitted via: CDex 1.51
#
DISCID=1803b003
DTITLE=森重　樹一 - Blowin' Free
DYEAR=1998
DGENRE=Hard Rock
TTITLE0=Blowin' Free
TTITLE1=Strength
TTITLE2=Blowin' Free (Original Instrumental)
EXTD=YEAR: 1998
EXTT0=
EXTT1=
EXTT2=
PLAYORDER=
